<?xml version="1.0" standalone="no"?>
<svg version="1.0" xmlns="http://www.w3.org/2000/svg"
 width="154" height="136" viewBox="0 0 154 136">
<g transform="translate(0,146) scale(0.1,-0.1)" fill="#000000">
<path d="M214 1141 c-2 -2 -4 -37 -4 -77 l0 -73 33 -3 32 -3 0 -300 0 -300
-32 -3 -33 -3 0 -80 0 -79 168 2 167 3 0 80 0 80 -30 0 -30 1 0 299 0 300 33
3 32 3 0 74 0 74 -166 3 c-91 2 -168 1 -170 -1z"/>
<path d="M817 1134 c-9 -10 -9 -116 1 -130 4 -7 18 -14 32 -15 19 -3 24 -9 22
-24 -9 -50 -176 -571 -186 -577 -6 -4 -21 -8 -33 -8 -22 0 -23 -4 -23 -80 l0
-80 150 0 150 0 0 80 0 80 -30 0 c-36 0 -45 16 -31 53 l11 27 129 0 c125 0
129 -1 135 -23 11 -43 7 -56 -21 -59 -28 -3 -28 -4 -28 -78 l0 -75 150 0 150
0 0 80 c0 76 -1 79 -25 85 -22 5 -32 31 -121 315 -54 171 -106 337 -116 370
l-18 60 -146 3 c-80 1 -148 -1 -152 -4z m237 -388 c20 -76 35 -141 32 -144 -5
-5 -158 -3 -163 2 -2 1 16 68 39 149 24 80 45 143 48 139 4 -4 23 -69 44 -146z"/>
</g>
</svg>